<svg width="63" height="42" viewBox="0 0 63 42" fill="none" xmlns="http://www.w3.org/2000/svg">
    <path d="M2.25235 26.5684C2.01396 26.429 1.70772 26.5093 1.56835 26.7477C1.42898 26.986 1.50926 27.2923 1.74765 27.4316L2.25235 26.5684ZM51.5 27L45.7506 26.4732L48.169 31.7157L51.5 27ZM1.74765 27.4316C6.75465 30.3588 14.6971 32.176 23.1099 32.6005C31.5313 33.0255 40.5045 32.0592 47.5931 29.3517L47.2363 28.4175C40.315 31.0611 31.4896 32.0221 23.1603 31.6018C14.8226 31.1811 7.06253 29.3805 2.25235 26.5684L1.74765 27.4316Z" fill="#202A3F" />
    <path d="M2.996 25H1.148V15.228H5.558C6.006 15.228 6.40733 15.298 6.762 15.438C7.11667 15.578 7.41533 15.7833 7.658 16.054C7.91 16.3153 8.10133 16.6327 8.232 17.006C8.372 17.3793 8.442 17.7947 8.442 18.252C8.442 18.924 8.288 19.5027 7.98 19.988C7.68133 20.4733 7.22867 20.8187 6.622 21.024L8.624 25H6.566L4.746 21.234H2.996V25ZM5.376 19.68C5.73067 19.68 6.01067 19.5867 6.216 19.4C6.42133 19.204 6.524 18.9287 6.524 18.574V17.93C6.524 17.5753 6.42133 17.3047 6.216 17.118C6.01067 16.9313 5.73067 16.838 5.376 16.838H2.996V19.68H5.376ZM15.5722 25C15.1802 25 14.8675 24.888 14.6342 24.664C14.4102 24.4307 14.2702 24.1227 14.2142 23.74H14.1302C14.0088 24.216 13.7615 24.5753 13.3882 24.818C13.0148 25.0513 12.5528 25.168 12.0022 25.168C11.2555 25.168 10.6815 24.972 10.2802 24.58C9.87882 24.188 9.67816 23.6653 9.67816 23.012C9.67816 22.256 9.94882 21.696 10.4902 21.332C11.0315 20.9587 11.8015 20.772 12.8002 20.772H14.0462V20.24C14.0462 19.8293 13.9388 19.512 13.7242 19.288C13.5095 19.064 13.1642 18.952 12.6882 18.952C12.2682 18.952 11.9275 19.0453 11.6662 19.232C11.4142 19.4093 11.1995 19.624 11.0222 19.876L9.95816 18.924C10.2288 18.504 10.5882 18.168 11.0362 17.916C11.4842 17.6547 12.0768 17.524 12.8142 17.524C13.8035 17.524 14.5548 17.748 15.0682 18.196C15.5815 18.644 15.8382 19.288 15.8382 20.128V23.572H16.5662V25H15.5722ZM12.6042 23.866C13.0055 23.866 13.3462 23.7773 13.6262 23.6C13.9062 23.4227 14.0462 23.1613 14.0462 22.816V21.85H12.8982C11.9648 21.85 11.4982 22.1487 11.4982 22.746V22.984C11.4982 23.2827 11.5915 23.5067 11.7782 23.656C11.9742 23.796 12.2495 23.866 12.6042 23.866ZM22.5525 23.782H22.4825C22.3518 24.202 22.1045 24.538 21.7405 24.79C21.3765 25.042 20.9518 25.168 20.4665 25.168C19.5425 25.168 18.8331 24.8367 18.3385 24.174C17.8531 23.5113 17.6105 22.564 17.6105 21.332C17.6105 20.1093 17.8531 19.1713 18.3385 18.518C18.8331 17.8553 19.5425 17.524 20.4665 17.524C20.9518 17.524 21.3765 17.65 21.7405 17.902C22.1045 18.1447 22.3518 18.476 22.4825 18.896H22.5525V14.64H24.3445V25H22.5525V23.782ZM21.0405 23.684C21.4698 23.684 21.8291 23.5813 22.1185 23.376C22.4078 23.1707 22.5525 22.8767 22.5525 22.494V20.17C22.5525 19.8153 22.4078 19.5307 22.1185 19.316C21.8291 19.1013 21.4698 18.994 21.0405 18.994C20.5738 18.994 20.1958 19.1527 19.9065 19.47C19.6265 19.778 19.4865 20.1933 19.4865 20.716V21.976C19.4865 22.4987 19.6265 22.914 19.9065 23.222C20.1958 23.53 20.5738 23.684 21.0405 23.684ZM27.307 16.628C26.9337 16.628 26.663 16.544 26.495 16.376C26.3363 16.208 26.257 15.9933 26.257 15.732V15.452C26.257 15.1907 26.3363 14.976 26.495 14.808C26.663 14.64 26.9337 14.556 27.307 14.556C27.671 14.556 27.937 14.64 28.105 14.808C28.273 14.976 28.357 15.1907 28.357 15.452V15.732C28.357 15.9933 28.273 16.208 28.105 16.376C27.937 16.544 27.671 16.628 27.307 16.628ZM26.411 17.692H28.203V25H26.411V17.692Z" fill="#202A3F" />
    <path d="M20.08 37.186C19.952 37.186 19.858 37.158 19.798 37.102C19.738 37.042 19.708 36.968 19.708 36.88C19.708 36.852 19.71 36.818 19.714 36.778C19.722 36.734 19.73 36.696 19.738 36.664C19.782 36.476 19.864 36.278 19.984 36.07C20.108 35.858 20.278 35.676 20.494 35.524H20.992C20.836 35.652 20.704 35.78 20.596 35.908C20.492 36.032 20.404 36.166 20.332 36.31C20.496 36.346 20.578 36.438 20.578 36.586C20.578 36.614 20.574 36.65 20.566 36.694C20.562 36.734 20.556 36.772 20.548 36.808C20.524 36.916 20.476 37.006 20.404 37.078C20.336 37.15 20.228 37.186 20.08 37.186ZM21.358 37.186C21.23 37.186 21.136 37.158 21.076 37.102C21.016 37.042 20.986 36.968 20.986 36.88C20.986 36.852 20.988 36.818 20.992 36.778C21 36.734 21.008 36.696 21.016 36.664C21.06 36.476 21.142 36.278 21.262 36.07C21.386 35.858 21.556 35.676 21.772 35.524H22.27C22.114 35.652 21.982 35.78 21.874 35.908C21.77 36.032 21.682 36.166 21.61 36.31C21.774 36.346 21.856 36.438 21.856 36.586C21.856 36.614 21.852 36.65 21.844 36.694C21.84 36.734 21.834 36.772 21.826 36.808C21.802 36.916 21.754 37.006 21.682 37.078C21.614 37.15 21.506 37.186 21.358 37.186ZM22.0507 40L22.6747 36.88H23.2987L23.1667 37.546H23.1967C23.3127 37.306 23.4487 37.124 23.6047 37C23.7607 36.872 23.9547 36.808 24.1867 36.808C24.4467 36.808 24.6407 36.882 24.7687 37.03C24.9007 37.178 24.9667 37.384 24.9667 37.648C24.9667 37.716 24.9627 37.784 24.9547 37.852C24.9467 37.916 24.9347 37.988 24.9187 38.068L24.6367 39.478H25.0147L24.9127 40H24.4387C24.3067 40 24.2007 39.966 24.1207 39.898C24.0447 39.83 24.0067 39.732 24.0067 39.604C24.0067 39.58 24.0067 39.56 24.0067 39.544C24.0067 39.524 24.0107 39.496 24.0187 39.46L24.2887 38.11C24.3127 37.99 24.3247 37.88 24.3247 37.78C24.3247 37.64 24.2927 37.534 24.2287 37.462C24.1647 37.386 24.0607 37.348 23.9167 37.348C23.7087 37.348 23.5267 37.436 23.3707 37.612C23.2827 37.708 23.2067 37.82 23.1427 37.948C23.0787 38.072 23.0347 38.196 23.0107 38.32L22.6747 40H22.0507ZM26.7561 40.072C26.4041 40.072 26.1201 39.962 25.9041 39.742C25.6881 39.522 25.5801 39.202 25.5801 38.782C25.5801 38.514 25.6201 38.26 25.7001 38.02C25.7801 37.78 25.8901 37.57 26.0301 37.39C26.1741 37.21 26.3441 37.068 26.5401 36.964C26.7361 36.86 26.9521 36.808 27.1881 36.808C27.5401 36.808 27.8241 36.918 28.0401 37.138C28.2561 37.358 28.3641 37.678 28.3641 38.098C28.3641 38.37 28.3241 38.626 28.2441 38.866C28.1641 39.102 28.0521 39.31 27.9081 39.49C27.7681 39.67 27.6001 39.812 27.4041 39.916C27.2081 40.02 26.9921 40.072 26.7561 40.072ZM26.8041 39.544C27.0001 39.544 27.1701 39.472 27.3141 39.328C27.4621 39.184 27.5641 38.974 27.6201 38.698L27.7221 38.2C27.7301 38.168 27.7361 38.132 27.7401 38.092C27.7441 38.052 27.7461 38.01 27.7461 37.966C27.7461 37.774 27.6941 37.622 27.5901 37.51C27.4901 37.394 27.3401 37.336 27.1401 37.336C26.9441 37.336 26.7721 37.408 26.6241 37.552C26.4801 37.696 26.3801 37.906 26.3241 38.182L26.2221 38.68C26.2141 38.716 26.2081 38.754 26.2041 38.794C26.2001 38.83 26.1981 38.87 26.1981 38.914C26.1981 39.106 26.2481 39.26 26.3481 39.376C26.4521 39.488 26.6041 39.544 26.8041 39.544ZM29.5339 40C29.3419 40 29.1999 39.958 29.1079 39.874C29.0199 39.79 28.9759 39.674 28.9759 39.526C28.9759 39.494 28.9779 39.458 28.9819 39.418C28.9859 39.378 28.9919 39.338 28.9999 39.298L29.3779 37.402H28.9219L29.0239 36.88H29.2579C29.3739 36.88 29.4519 36.856 29.4919 36.808C29.5359 36.76 29.5679 36.682 29.5879 36.574L29.6959 36.028H30.2779L30.1099 36.88H30.7339L30.6319 37.402H30.0019L29.5879 39.478H30.1939L30.0919 40H29.5339ZM31.634 35.56H32.258L31.862 37.546H31.892C32.008 37.306 32.144 37.124 32.3 37C32.456 36.872 32.65 36.808 32.882 36.808C33.142 36.808 33.336 36.882 33.464 37.03C33.596 37.178 33.662 37.384 33.662 37.648C33.662 37.716 33.658 37.784 33.65 37.852C33.642 37.916 33.63 37.988 33.614 38.068L33.332 39.478H33.71L33.608 40H33.134C33.002 40 32.896 39.966 32.816 39.898C32.74 39.83 32.702 39.732 32.702 39.604C32.702 39.58 32.702 39.556 32.702 39.532C32.706 39.504 32.71 39.48 32.714 39.46L32.984 38.11C33.008 37.99 33.02 37.88 33.02 37.78C33.02 37.64 32.988 37.534 32.924 37.462C32.86 37.386 32.756 37.348 32.612 37.348C32.404 37.348 32.222 37.436 32.066 37.612C31.978 37.708 31.902 37.82 31.838 37.948C31.774 38.072 31.73 38.196 31.706 38.32L31.37 40H30.746L31.634 35.56ZM35.2474 36.322C35.1314 36.322 35.0474 36.298 34.9954 36.25C34.9434 36.202 34.9174 36.142 34.9174 36.07C34.9174 36.03 34.9274 35.96 34.9474 35.86C34.9674 35.768 35.0094 35.692 35.0734 35.632C35.1374 35.568 35.2394 35.536 35.3794 35.536C35.4954 35.536 35.5794 35.56 35.6314 35.608C35.6834 35.656 35.7094 35.716 35.7094 35.788C35.7094 35.828 35.6994 35.898 35.6794 35.998C35.6594 36.09 35.6174 36.168 35.5534 36.232C35.4894 36.292 35.3874 36.322 35.2474 36.322ZM34.7494 40C34.5974 40 34.4814 39.962 34.4014 39.886C34.3214 39.806 34.2814 39.704 34.2814 39.58C34.2814 39.54 34.2874 39.49 34.2994 39.43L34.8094 36.88H35.4334L34.9114 39.478H35.3134L35.2114 40H34.7494ZM35.8143 40L36.4383 36.88H37.0623L36.9303 37.546H36.9603C37.0763 37.306 37.2123 37.124 37.3683 37C37.5243 36.872 37.7183 36.808 37.9503 36.808C38.2103 36.808 38.4043 36.882 38.5323 37.03C38.6643 37.178 38.7303 37.384 38.7303 37.648C38.7303 37.716 38.7263 37.784 38.7183 37.852C38.7103 37.916 38.6983 37.988 38.6823 38.068L38.4003 39.478H38.7783L38.6763 40H38.2023C38.0703 40 37.9643 39.966 37.8843 39.898C37.8083 39.83 37.7703 39.732 37.7703 39.604C37.7703 39.58 37.7703 39.56 37.7703 39.544C37.7703 39.524 37.7743 39.496 37.7823 39.46L38.0523 38.11C38.0763 37.99 38.0883 37.88 38.0883 37.78C38.0883 37.64 38.0563 37.534 37.9923 37.462C37.9283 37.386 37.8243 37.348 37.6803 37.348C37.4723 37.348 37.2903 37.436 37.1343 37.612C37.0463 37.708 36.9703 37.82 36.9063 37.948C36.8423 38.072 36.7983 38.196 36.7743 38.32L36.4383 40H35.8143ZM41.5598 35.56H42.1838L41.7818 37.576H41.8058C41.9338 37.32 42.0738 37.128 42.2258 37C42.3818 36.872 42.5798 36.808 42.8198 36.808C43.1078 36.808 43.3298 36.912 43.4858 37.12C43.6418 37.328 43.7198 37.606 43.7198 37.954C43.7198 38.226 43.6858 38.49 43.6178 38.746C43.5498 39.002 43.4498 39.228 43.3178 39.424C43.1898 39.62 43.0338 39.778 42.8498 39.898C42.6658 40.014 42.4578 40.072 42.2258 40.072C42.0218 40.072 41.8458 40.02 41.6978 39.916C41.5498 39.812 41.4598 39.666 41.4278 39.478H41.3978L41.2958 40H40.6718L41.5598 35.56ZM42.1118 39.538C42.3398 39.538 42.5238 39.468 42.6638 39.328C42.8038 39.184 42.9018 38.974 42.9578 38.698L43.0478 38.26C43.0558 38.212 43.0618 38.16 43.0658 38.104C43.0738 38.044 43.0778 37.988 43.0778 37.936C43.0778 37.76 43.0358 37.618 42.9518 37.51C42.8678 37.398 42.7398 37.342 42.5678 37.342C42.4438 37.342 42.3338 37.372 42.2378 37.432C42.1418 37.488 42.0538 37.558 41.9738 37.642C41.8898 37.734 41.8178 37.838 41.7578 37.954C41.7018 38.066 41.6598 38.192 41.6318 38.332L41.5178 38.902C41.4818 39.082 41.5138 39.234 41.6138 39.358C41.7138 39.478 41.8798 39.538 42.1118 39.538ZM45.3467 36.88L44.9687 38.776C44.9567 38.832 44.9467 38.888 44.9387 38.944C44.9347 39 44.9327 39.05 44.9327 39.094C44.9327 39.234 44.9627 39.342 45.0227 39.418C45.0827 39.494 45.1827 39.532 45.3227 39.532C45.5227 39.532 45.7007 39.444 45.8567 39.268C45.9487 39.164 46.0247 39.05 46.0847 38.926C46.1487 38.798 46.1927 38.672 46.2167 38.548L46.5527 36.88H47.1767L46.6547 39.478H47.0567L46.9547 40H46.4747C46.3347 40 46.2247 39.964 46.1447 39.892C46.0687 39.816 46.0307 39.714 46.0307 39.586C46.0307 39.534 46.0367 39.474 46.0487 39.406L46.0607 39.334H46.0307C45.9147 39.574 45.7807 39.758 45.6287 39.886C45.4767 40.01 45.2887 40.072 45.0647 40.072C44.8087 40.072 44.6147 39.998 44.4827 39.85C44.3547 39.702 44.2907 39.496 44.2907 39.232C44.2907 39.164 44.2947 39.096 44.3027 39.028C44.3107 38.96 44.3227 38.886 44.3387 38.806L44.7227 36.88H45.3467ZM48.3425 40C48.1505 40 48.0085 39.958 47.9165 39.874C47.8285 39.79 47.7845 39.674 47.7845 39.526C47.7845 39.494 47.7865 39.458 47.7905 39.418C47.7945 39.378 47.8005 39.338 47.8085 39.298L48.1865 37.402H47.7305L47.8325 36.88H48.0665C48.1825 36.88 48.2605 36.856 48.3005 36.808C48.3445 36.76 48.3765 36.682 48.3965 36.574L48.5045 36.028H49.0865L48.9185 36.88H49.5425L49.4405 37.402H48.8105L48.3965 39.478H49.0025L48.9005 40H48.3425ZM50.9725 40L51.5965 36.88H52.2205L52.0885 37.546H52.1185C52.2345 37.306 52.3705 37.124 52.5265 37C52.6825 36.872 52.8765 36.808 53.1085 36.808C53.3685 36.808 53.5625 36.882 53.6905 37.03C53.8225 37.178 53.8885 37.384 53.8885 37.648C53.8885 37.716 53.8845 37.784 53.8765 37.852C53.8685 37.916 53.8565 37.988 53.8405 38.068L53.5585 39.478H53.9365L53.8345 40H53.3605C53.2285 40 53.1225 39.966 53.0425 39.898C52.9665 39.83 52.9285 39.732 52.9285 39.604C52.9285 39.58 52.9285 39.56 52.9285 39.544C52.9285 39.524 52.9325 39.496 52.9405 39.46L53.2105 38.11C53.2345 37.99 53.2465 37.88 53.2465 37.78C53.2465 37.64 53.2145 37.534 53.1505 37.462C53.0865 37.386 52.9825 37.348 52.8385 37.348C52.6305 37.348 52.4485 37.436 52.2925 37.612C52.2045 37.708 52.1285 37.82 52.0645 37.948C52.0005 38.072 51.9565 38.196 51.9325 38.32L51.5965 40H50.9725ZM55.738 40.072C55.334 40.072 55.026 39.958 54.814 39.73C54.606 39.498 54.502 39.172 54.502 38.752C54.502 38.496 54.54 38.252 54.616 38.02C54.696 37.784 54.808 37.576 54.952 37.396C55.096 37.216 55.27 37.074 55.474 36.97C55.678 36.862 55.906 36.808 56.158 36.808C56.282 36.808 56.406 36.824 56.53 36.856C56.658 36.888 56.772 36.938 56.872 37.006C56.972 37.074 57.052 37.162 57.112 37.27C57.176 37.378 57.208 37.508 57.208 37.66C57.208 37.992 57.04 38.246 56.704 38.422C56.372 38.598 55.85 38.694 55.138 38.71C55.126 38.79 55.12 38.856 55.12 38.908C55.12 39.1 55.172 39.254 55.276 39.37C55.384 39.486 55.552 39.544 55.78 39.544C55.952 39.544 56.108 39.506 56.248 39.43C56.388 39.354 56.522 39.236 56.65 39.076L57.046 39.406C56.85 39.65 56.644 39.822 56.428 39.922C56.212 40.022 55.982 40.072 55.738 40.072ZM56.11 37.306C55.894 37.306 55.706 37.38 55.546 37.528C55.39 37.672 55.288 37.868 55.24 38.116L55.21 38.272C55.494 38.26 55.726 38.24 55.906 38.212C56.086 38.184 56.226 38.146 56.326 38.098C56.43 38.05 56.5 37.992 56.536 37.924C56.572 37.856 56.59 37.778 56.59 37.69C56.59 37.614 56.576 37.552 56.548 37.504C56.52 37.452 56.482 37.412 56.434 37.384C56.39 37.352 56.34 37.332 56.284 37.324C56.228 37.312 56.17 37.306 56.11 37.306ZM58.2683 40C58.0763 40 57.9343 39.958 57.8423 39.874C57.7543 39.79 57.7103 39.674 57.7103 39.526C57.7103 39.494 57.7123 39.458 57.7163 39.418C57.7203 39.378 57.7263 39.338 57.7343 39.298L58.1123 37.402H57.6563L57.7583 36.88H57.9923C58.1083 36.88 58.1863 36.856 58.2263 36.808C58.2703 36.76 58.3023 36.682 58.3223 36.574L58.4303 36.028H59.0123L58.8443 36.88H59.4683L59.3663 37.402H58.7363L58.3223 39.478H58.9283L58.8263 40H58.2683ZM60.8104 35.5C60.9384 35.5 61.0324 35.53 61.0924 35.59C61.1524 35.646 61.1824 35.718 61.1824 35.806C61.1824 35.834 61.1784 35.87 61.1704 35.914C61.1664 35.954 61.1604 35.99 61.1524 36.022C61.1084 36.21 61.0244 36.41 60.9004 36.622C60.7804 36.83 60.6124 37.01 60.3964 37.162H59.8984C60.0544 37.034 60.1844 36.908 60.2884 36.784C60.3964 36.656 60.4864 36.52 60.5584 36.376C60.3944 36.34 60.3124 36.248 60.3124 36.1C60.3124 36.072 60.3144 36.038 60.3184 35.998C60.3264 35.954 60.3344 35.914 60.3424 35.878C60.3664 35.77 60.4124 35.68 60.4804 35.608C60.5524 35.536 60.6624 35.5 60.8104 35.5ZM62.0884 35.5C62.2164 35.5 62.3104 35.53 62.3704 35.59C62.4304 35.646 62.4604 35.718 62.4604 35.806C62.4604 35.834 62.4564 35.87 62.4484 35.914C62.4444 35.954 62.4384 35.99 62.4304 36.022C62.3864 36.21 62.3024 36.41 62.1784 36.622C62.0584 36.83 61.8904 37.01 61.6744 37.162H61.1764C61.3324 37.034 61.4624 36.908 61.5664 36.784C61.6744 36.656 61.7644 36.52 61.8364 36.376C61.6724 36.34 61.5904 36.248 61.5904 36.1C61.5904 36.072 61.5924 36.038 61.5964 35.998C61.6044 35.954 61.6124 35.914 61.6204 35.878C61.6444 35.77 61.6904 35.68 61.7584 35.608C61.8304 35.536 61.9404 35.5 62.0884 35.5Z" fill="#202A3F" />
    <path d="M37.656 17.824L34.872 20.704L34.008 25H30.528L33.888 8.248H37.368L35.76 16.264H35.928L38.568 13.12L43.08 8.248H47.304L40.392 15.448L44.304 25H40.464L37.656 17.824ZM51.8934 25.288C50.5014 25.288 49.2614 25.064 48.1734 24.616C47.1014 24.168 46.2614 23.4 45.6534 22.312L48.3174 20.224C48.7334 20.896 49.2134 21.392 49.7574 21.712C50.3174 22.032 51.0294 22.192 51.8934 22.192C52.9014 22.192 53.6854 21.968 54.2454 21.52C54.8054 21.072 55.0854 20.496 55.0854 19.792C55.0854 19.28 54.9014 18.896 54.5334 18.64C54.1654 18.384 53.7094 18.192 53.1654 18.064L52.0614 17.824C51.4534 17.696 50.9014 17.52 50.4054 17.296C49.9094 17.056 49.4854 16.76 49.1334 16.408C48.7814 16.04 48.5094 15.608 48.3174 15.112C48.1414 14.616 48.0534 14.032 48.0534 13.36C48.0534 12.592 48.2054 11.88 48.5094 11.224C48.8294 10.568 49.2694 10 49.8294 9.52C50.3894 9.04 51.0694 8.664 51.8694 8.392C52.6694 8.104 53.5494 7.96 54.5094 7.96C55.7574 7.96 56.8774 8.16 57.8694 8.56C58.8774 8.944 59.6694 9.52 60.2454 10.288L57.7254 12.544C57.3414 12.016 56.8934 11.64 56.3814 11.416C55.8854 11.176 55.2134 11.056 54.3654 11.056C53.5014 11.056 52.8134 11.24 52.3014 11.608C51.8054 11.976 51.5574 12.456 51.5574 13.048C51.5574 13.528 51.7094 13.888 52.0134 14.128C52.3334 14.368 52.7814 14.552 53.3574 14.68L54.4134 14.92C55.0534 15.064 55.6374 15.256 56.1654 15.496C56.6934 15.736 57.1414 16.04 57.5094 16.408C57.8774 16.76 58.1654 17.184 58.3734 17.68C58.5814 18.176 58.6854 18.752 58.6854 19.408C58.6854 20.128 58.5254 20.84 58.2054 21.544C57.9014 22.248 57.4534 22.88 56.8614 23.44C56.2854 23.984 55.5734 24.432 54.7254 24.784C53.8934 25.12 52.9494 25.288 51.8934 25.288Z" fill="#FFA724" />
</svg>